<svg width="40" height="50" viewBox="0 0 40 50" fill="none" xmlns="http://www.w3.org/2000/svg">
<path fill-rule="evenodd" clip-rule="evenodd" d="M10.2128 0H22.5532H29.4468C31.0355 0 32.3688 0.61849 33.4468 1.85547C37.8156 7.32422 40 15.1042 40 25.1953C40 34.5703 37.9291 42.0898 33.7872 47.7539C32.766 49.2513 31.3759 50 29.617 50H10.2128C8.73759 50 7.57447 49.5117 6.7234 48.5352C4.73759 46.7773 3.12057 43.7012 1.87234 39.3066C0.624113 34.9121 0 30.0781 0 24.8047C0 20.2474 0.553192 15.9505 1.65957 11.9141C2.76596 7.8776 4.28369 4.58984 6.21277 2.05078C7.29078 0.683594 8.62411 0 10.2128 0ZM28.3404 12.5C28.6809 14.974 28.9362 17.7409 29.1064 20.8008V29.1992C29.0496 29.9154 28.9504 31.2012 28.8085 33.0566C28.6667 34.9121 28.5674 36.3932 28.5106 37.5H34.7234C35.5177 34.4401 36 31.6732 36.1702 29.1992V20.8008C35.7731 17.2852 35.234 14.5182 34.5532 12.5H28.3404ZM14.7234 29.1992C14.7234 32.3893 14.922 35.1562 15.3191 37.5H24.9362C25.1631 34.375 25.3333 31.6081 25.4468 29.1992L25.2766 20.8008C25.0496 17.0247 24.7943 14.2578 24.5106 12.5H15.4894C15.2057 14.2578 14.9504 17.0247 14.7234 20.8008V29.1992ZM22.5532 45.8008C23.234 44.4987 23.7163 43.1315 24 41.6992H15.6596C16.3972 44.043 16.8794 45.4102 17.1064 45.8008H22.5532ZM3.82979 29.1992C4.17021 32.2591 4.70922 35.319 5.44681 38.3789V37.5H11.4894C11.0922 34.7656 10.8936 31.9987 10.8936 29.1992V20.8008C11.0638 17.7409 11.3191 14.974 11.6596 12.5H5.44681V11.9141C4.53901 14.7135 4 17.6758 3.82979 20.8008V29.1992ZM17.4468 4.19922C16.766 6.21745 16.3404 7.58464 16.1702 8.30078H23.8298C23.5461 6.80339 23.1206 5.4362 22.5532 4.19922H17.4468ZM32.8511 8.30078C32.4539 7.12891 31.7447 5.95703 30.7234 4.78516C30.5532 4.39453 30.1277 4.19922 29.4468 4.19922H26.383C26.6099 4.98047 26.9504 6.34766 27.4043 8.30078H32.8511ZM13.4468 4.19922H10.2128C9.58865 4.19922 9.10638 4.39453 8.76596 4.78516C8.19858 5.63151 7.51773 6.80339 6.7234 8.30078H12.3404C12.5106 7.77995 12.7092 7.0638 12.9362 6.15234C13.1631 5.24089 13.3333 4.58984 13.4468 4.19922ZM6.7234 41.6992C7.57447 43.5872 8.36879 44.8242 9.10638 45.4102C9.33333 45.6706 9.70213 45.8008 10.2128 45.8008H13.4468C13.3333 45.4102 13.1631 44.7591 12.9362 43.8477C12.7092 42.9362 12.5106 42.2201 12.3404 41.6992H6.7234ZM26.7234 45.8008H29.617C30.2979 45.8008 30.7801 45.5404 31.0638 45.0195C31.9149 43.8477 32.5957 42.7409 33.1064 41.6992H27.8298C27.6596 42.2201 27.461 42.9362 27.234 43.8477C27.0071 44.7591 26.8369 45.4102 26.7234 45.8008Z" fill="#C06A04"/>
</svg>
