<svg width="41" height="45" viewBox="0 0 41 45" fill="none" xmlns="http://www.w3.org/2000/svg">
<g filter="url(#filter0_d_501_45)">
<path fill-rule="evenodd" clip-rule="evenodd" d="M15.4301 6H21.8805H25.4838C26.3142 6 27.0112 6.30924 27.5746 6.92773C29.8582 9.66211 31 13.5521 31 18.5977C31 23.2852 29.9175 27.0449 27.7526 29.877C27.2187 30.6257 26.4922 31 25.5728 31H15.4301C14.659 31 14.0511 30.7559 13.6062 30.2676C12.5682 29.3887 11.723 27.8506 11.0705 25.6533C10.4181 23.4561 10.0919 21.0391 10.0919 18.4023C10.0919 16.1237 10.381 13.9753 10.9593 11.957C11.5376 9.9388 12.331 8.29492 13.3393 7.02539C13.9028 6.3418 14.5997 6 15.4301 6ZM24.9055 12.25C25.0834 13.487 25.2169 14.8704 25.3059 16.4004V20.5996C25.2762 20.9577 25.2243 21.6006 25.1502 22.5283C25.076 23.4561 25.0241 24.1966 24.9945 24.75H28.2419C28.6571 23.2201 28.9092 21.8366 28.9982 20.5996V16.4004C28.7906 14.6426 28.5088 13.2591 28.1529 12.25H24.9055ZM17.7878 20.5996C17.7878 22.1947 17.8916 23.5781 18.0992 24.75H23.1261C23.2447 23.1875 23.3337 21.804 23.393 20.5996L23.304 16.4004C23.1854 14.5124 23.0519 13.1289 22.9037 12.25H18.1882C18.0399 13.1289 17.9065 14.5124 17.7878 16.4004V20.5996ZM21.8805 28.9004C22.2364 28.2493 22.4885 27.5658 22.6367 26.8496H18.2772C18.6627 28.0215 18.9148 28.7051 19.0334 28.9004H21.8805ZM12.0937 20.5996C12.2716 22.1296 12.5534 23.6595 12.9389 25.1895V24.75H16.0974C15.8898 23.3828 15.786 21.9993 15.786 20.5996V16.4004C15.875 14.8704 16.0084 13.487 16.1864 12.25H12.9389V11.957C12.4644 13.3568 12.1827 14.8379 12.0937 16.4004V20.5996ZM19.2114 8.09961C18.8555 9.10872 18.6331 9.79232 18.5441 10.1504H22.5478C22.3995 9.40169 22.1771 8.7181 21.8805 8.09961H19.2114ZM27.2632 10.1504C27.0556 9.56445 26.6849 8.97852 26.1511 8.39258C26.0621 8.19727 25.8397 8.09961 25.4838 8.09961H23.8823C24.001 8.49023 24.1789 9.17383 24.4162 10.1504H27.2632ZM17.1206 8.09961H15.4301C15.1039 8.09961 14.8518 8.19727 14.6739 8.39258C14.3773 8.81576 14.0214 9.40169 13.6062 10.1504H16.5422C16.6312 9.88997 16.735 9.5319 16.8536 9.07617C16.9723 8.62044 17.0612 8.29492 17.1206 8.09961ZM13.6062 26.8496C14.0511 27.7936 14.4663 28.4121 14.8518 28.7051C14.9704 28.8353 15.1632 28.9004 15.4301 28.9004H17.1206C17.0612 28.7051 16.9723 28.3796 16.8536 27.9238C16.735 27.4681 16.6312 27.11 16.5422 26.8496H13.6062ZM24.0603 28.9004H25.5728C25.9287 28.9004 26.1808 28.7702 26.329 28.5098C26.7739 27.9238 27.1298 27.3704 27.3967 26.8496H24.6386C24.5496 27.11 24.4458 27.4681 24.3272 27.9238C24.2086 28.3796 24.1196 28.7051 24.0603 28.9004Z" fill="#C06A04"/>
</g>
<defs>
<filter id="filter0_d_501_45" x="0.0918579" y="0" width="40.9081" height="45" filterUnits="userSpaceOnUse" color-interpolation-filters="sRGB">
<feFlood flood-opacity="0" result="BackgroundImageFix"/>
<feColorMatrix in="SourceAlpha" type="matrix" values="0 0 0 0 0 0 0 0 0 0 0 0 0 0 0 0 0 0 127 0" result="hardAlpha"/>
<feOffset dy="4"/>
<feGaussianBlur stdDeviation="5"/>
<feComposite in2="hardAlpha" operator="out"/>
<feColorMatrix type="matrix" values="0 0 0 0 1 0 0 0 0 0.84 0 0 0 0 0 0 0 0 0.8 0"/>
<feBlend mode="normal" in2="BackgroundImageFix" result="effect1_dropShadow_501_45"/>
<feBlend mode="normal" in="SourceGraphic" in2="effect1_dropShadow_501_45" result="shape"/>
</filter>
</defs>
</svg>
