<svg width="234" height="167" viewBox="0 0 234 167" fill="none" xmlns="http://www.w3.org/2000/svg">
<g filter="url(#filter0_f_53_1327)">
<path fill-rule="evenodd" clip-rule="evenodd" d="M70.2156 74.9448L94.7821 34L139.546 34L163.745 74.3319L139.178 115.277H94.4144L70.2156 74.9448Z" fill="#FFD600" fill-opacity="0.8"/>
</g>
<g clip-path="url(#clip0_53_1327)">
<path d="M39.36 128V114H40.58L46.98 124.92H46.34L52.68 114H53.9V128H52.48V116.22H52.82L46.98 126.22H46.28L40.4 116.22H40.78V128H39.36ZM63.5778 128.1C62.4845 128.1 61.5245 127.873 60.6978 127.42C59.8711 126.953 59.2245 126.32 58.7578 125.52C58.2911 124.707 58.0578 123.78 58.0578 122.74C58.0578 121.7 58.2778 120.78 58.7178 119.98C59.1711 119.18 59.7845 118.553 60.5578 118.1C61.3445 117.633 62.2245 117.4 63.1978 117.4C64.1845 117.4 65.0578 117.627 65.8178 118.08C66.5911 118.52 67.1978 119.147 67.6378 119.96C68.0778 120.76 68.2978 121.687 68.2978 122.74C68.2978 122.807 68.2911 122.88 68.2778 122.96C68.2778 123.027 68.2778 123.1 68.2778 123.18H59.1378V122.12H67.5178L66.9578 122.54C66.9578 121.78 66.7911 121.107 66.4578 120.52C66.1378 119.92 65.6978 119.453 65.1378 119.12C64.5778 118.787 63.9311 118.62 63.1978 118.62C62.4778 118.62 61.8311 118.787 61.2578 119.12C60.6845 119.453 60.2378 119.92 59.9178 120.52C59.5978 121.12 59.4378 121.807 59.4378 122.58V122.8C59.4378 123.6 59.6111 124.307 59.9578 124.92C60.3178 125.52 60.8111 125.993 61.4378 126.34C62.0778 126.673 62.8045 126.84 63.6178 126.84C64.2578 126.84 64.8511 126.727 65.3978 126.5C65.9578 126.273 66.4378 125.927 66.8378 125.46L67.6378 126.38C67.1711 126.94 66.5845 127.367 65.8778 127.66C65.1845 127.953 64.4178 128.1 63.5778 128.1ZM79.2262 127.32V118.74H74.1662L74.0462 121.08C74.0196 121.787 73.9729 122.48 73.9062 123.16C73.8529 123.84 73.7529 124.467 73.6062 125.04C73.4729 125.6 73.2796 126.06 73.0262 126.42C72.7729 126.767 72.4462 126.967 72.0462 127.02L70.6262 126.76C71.0396 126.773 71.3796 126.627 71.6462 126.32C71.9129 126 72.1196 125.567 72.2662 125.02C72.4129 124.473 72.5196 123.853 72.5862 123.16C72.6529 122.453 72.7062 121.733 72.7462 121L72.8862 117.5H80.6462V127.32H79.2262ZM70.1862 130.54V126.76H82.2862V130.54H80.9462V128H71.5262V130.54H70.1862ZM90.1736 128.1C89.1603 128.1 88.2469 127.873 87.4336 127.42C86.6336 126.953 86.0003 126.32 85.5336 125.52C85.0669 124.707 84.8336 123.78 84.8336 122.74C84.8336 121.687 85.0669 120.76 85.5336 119.96C86.0003 119.16 86.6336 118.533 87.4336 118.08C88.2336 117.627 89.1469 117.4 90.1736 117.4C91.2136 117.4 92.1336 117.627 92.9336 118.08C93.7469 118.533 94.3803 119.16 94.8336 119.96C95.3003 120.76 95.5336 121.687 95.5336 122.74C95.5336 123.78 95.3003 124.707 94.8336 125.52C94.3803 126.32 93.7469 126.953 92.9336 127.42C92.1203 127.873 91.2003 128.1 90.1736 128.1ZM90.1736 126.84C90.9336 126.84 91.6069 126.673 92.1936 126.34C92.7803 125.993 93.2403 125.513 93.5736 124.9C93.9203 124.273 94.0936 123.553 94.0936 122.74C94.0936 121.913 93.9203 121.193 93.5736 120.58C93.2403 119.967 92.7803 119.493 92.1936 119.16C91.6069 118.813 90.9403 118.64 90.1936 118.64C89.4469 118.64 88.7803 118.813 88.1936 119.16C87.6069 119.493 87.1403 119.967 86.7936 120.58C86.4469 121.193 86.2736 121.913 86.2736 122.74C86.2736 123.553 86.4469 124.273 86.7936 124.9C87.1403 125.513 87.6069 125.993 88.1936 126.34C88.7803 126.673 89.4403 126.84 90.1736 126.84ZM99.3684 128V117.5H104.008C105.195 117.5 106.128 117.727 106.808 118.18C107.502 118.633 107.848 119.3 107.848 120.18C107.848 121.033 107.522 121.693 106.868 122.16C106.215 122.613 105.355 122.84 104.288 122.84L104.568 122.42C105.822 122.42 106.742 122.653 107.328 123.12C107.915 123.587 108.208 124.26 108.208 125.14C108.208 126.047 107.875 126.753 107.208 127.26C106.555 127.753 105.535 128 104.148 128H99.3684ZM100.748 126.88H104.088C104.982 126.88 105.655 126.74 106.108 126.46C106.575 126.167 106.808 125.7 106.808 125.06C106.808 124.42 106.602 123.953 106.188 123.66C105.775 123.367 105.122 123.22 104.228 123.22H100.748V126.88ZM100.748 122.16H103.908C104.722 122.16 105.342 122.007 105.768 121.7C106.208 121.393 106.428 120.947 106.428 120.36C106.428 119.773 106.208 119.333 105.768 119.04C105.342 118.747 104.722 118.6 103.908 118.6H100.748V122.16ZM118.856 128V125.68L118.796 125.3V121.42C118.796 120.527 118.543 119.84 118.036 119.36C117.543 118.88 116.803 118.64 115.816 118.64C115.136 118.64 114.49 118.753 113.876 118.98C113.263 119.207 112.743 119.507 112.316 119.88L111.676 118.82C112.21 118.367 112.85 118.02 113.596 117.78C114.343 117.527 115.13 117.4 115.956 117.4C117.316 117.4 118.363 117.74 119.096 118.42C119.843 119.087 120.216 120.107 120.216 121.48V128H118.856ZM115.236 128.1C114.45 128.1 113.763 127.973 113.176 127.72C112.603 127.453 112.163 127.093 111.856 126.64C111.55 126.173 111.396 125.64 111.396 125.04C111.396 124.493 111.523 124 111.776 123.56C112.043 123.107 112.47 122.747 113.056 122.48C113.656 122.2 114.456 122.06 115.456 122.06H119.076V123.12H115.496C114.483 123.12 113.776 123.3 113.376 123.66C112.99 124.02 112.796 124.467 112.796 125C112.796 125.6 113.03 126.08 113.496 126.44C113.963 126.8 114.616 126.98 115.456 126.98C116.256 126.98 116.943 126.8 117.516 126.44C118.103 126.067 118.53 125.533 118.796 124.84L119.116 125.82C118.85 126.513 118.383 127.067 117.716 127.48C117.063 127.893 116.236 128.1 115.236 128.1ZM138.031 127.32V118.74H132.971L132.851 121.08C132.824 121.787 132.778 122.48 132.711 123.16C132.658 123.84 132.558 124.467 132.411 125.04C132.278 125.6 132.084 126.06 131.831 126.42C131.578 126.767 131.251 126.967 130.851 127.02L129.431 126.76C129.844 126.773 130.184 126.627 130.451 126.32C130.718 126 130.924 125.567 131.071 125.02C131.218 124.473 131.324 123.853 131.391 123.16C131.458 122.453 131.511 121.733 131.551 121L131.691 117.5H139.451V127.32H138.031ZM128.991 130.54V126.76H141.091V130.54H139.751V128H130.331V130.54H128.991ZM144.658 128V117.5H146.078V128H144.658ZM145.378 115.18C145.085 115.18 144.838 115.08 144.638 114.88C144.438 114.68 144.338 114.44 144.338 114.16C144.338 113.88 144.438 113.647 144.638 113.46C144.838 113.26 145.085 113.16 145.378 113.16C145.672 113.16 145.918 113.253 146.118 113.44C146.318 113.627 146.418 113.86 146.418 114.14C146.418 114.433 146.318 114.68 146.118 114.88C145.932 115.08 145.685 115.18 145.378 115.18ZM163.387 128L159.787 122.8L160.967 122.1L165.087 128H163.387ZM157.427 123.32V122.1H160.747V123.32H157.427ZM161.107 122.9L159.747 122.7L163.247 117.5H164.787L161.107 122.9ZM150.947 128H149.247L153.367 122.1L154.527 122.8L150.947 128ZM157.867 128H156.447V117.5H157.867V128ZM156.887 123.32H153.587V122.1H156.887V123.32ZM153.247 122.9L149.547 117.5H151.087L154.567 122.7L153.247 122.9ZM175.95 128L171.63 122.8L172.81 122.1L177.63 128H175.95ZM168.25 128V117.5H169.67V128H168.25ZM169.23 123.32V122.1H172.61V123.32H169.23ZM172.93 122.9L171.61 122.7L175.79 117.5H177.33L172.93 122.9ZM186.996 128V125.68L186.936 125.3V121.42C186.936 120.527 186.683 119.84 186.176 119.36C185.683 118.88 184.943 118.64 183.956 118.64C183.276 118.64 182.63 118.753 182.016 118.98C181.403 119.207 180.883 119.507 180.456 119.88L179.816 118.82C180.35 118.367 180.99 118.02 181.736 117.78C182.483 117.527 183.27 117.4 184.096 117.4C185.456 117.4 186.503 117.74 187.236 118.42C187.983 119.087 188.356 120.107 188.356 121.48V128H186.996ZM183.376 128.1C182.59 128.1 181.903 127.973 181.316 127.72C180.743 127.453 180.303 127.093 179.996 126.64C179.69 126.173 179.536 125.64 179.536 125.04C179.536 124.493 179.663 124 179.916 123.56C180.183 123.107 180.61 122.747 181.196 122.48C181.796 122.2 182.596 122.06 183.596 122.06H187.216V123.12H183.636C182.623 123.12 181.916 123.3 181.516 123.66C181.13 124.02 180.936 124.467 180.936 125C180.936 125.6 181.17 126.08 181.636 126.44C182.103 126.8 182.756 126.98 183.596 126.98C184.396 126.98 185.083 126.8 185.656 126.44C186.243 126.067 186.67 125.533 186.936 124.84L187.256 125.82C186.99 126.513 186.523 127.067 185.856 127.48C185.203 127.893 184.376 128.1 183.376 128.1Z" fill="#955100"/>
<path d="M106.145 78.8434C106.145 78.8434 106.476 76.2651 106.709 74.6668C106.943 73.0686 107.438 70.7353 108.499 65.6597C109.559 60.5841 111.348 56.5304 111.348 56.5304M111.348 56.5304C111.348 56.5304 112.533 52.8014 117 49.0884C121.467 45.3753 122.408 45.3959 126 45C129.592 44.6041 133.388 46.4792 135.297 49.0884C137.207 51.6975 137.437 54.6318 136.508 58.2571C135.539 62.0426 134.493 62.9504 130.389 67.3764C126.286 71.8024 117.415 78.8811 117.415 78.8811M111.348 56.5304C111.284 49.6946 110.567 48.8325 109.365 46.5723C108.163 44.3122 103.234 42.5144 99.6276 43.5959C96.0211 44.6774 94.5179 48.4038 94.205 53.9139C93.892 59.424 99.6212 73.2339 102.67 78.1512" stroke="#C06A04" stroke-width="2"/>
<path d="M93.2022 96.4331C93.9287 95.3111 95.3898 95.3498 96.5363 95.5347C97.6828 95.7195 98.2899 96.4198 98.4613 97.4445C98.7688 99.2832 98.9834 100.567 98.0515 102.604C97.4514 103.915 96.244 104.064 94.7926 104.043C93.5478 104.02 92.471 103.476 92.2676 102.26C91.8577 99.8079 92.1908 97.9949 93.2022 96.4331Z" fill="#C06A04"/>
<path d="M84.6551 92.8862C85.8856 91.4222 88.3118 92.2752 88.3118 92.2752C88.3118 92.2752 89.6988 92.6082 89.6455 94.1922C89.5628 96.6514 89.0248 98.0909 88.2989 99.4574C87.815 100.368 87.5243 100.532 85.3067 100.587C83.0891 100.643 82.5233 99.1623 83.0933 96.862C83.6966 94.4269 84.3441 93.2563 84.6551 92.8862Z" fill="#C06A04"/>
<path d="M111 81.7316C114.714 81.1111 118.079 81.6383 120.78 81.7316M135.275 94.8572C135.275 94.8572 134.274 90.7255 133.597 89.1148C132.92 87.5042 132.951 86.9927 130.5 85C130.5 85 123.481 81.8249 120.78 81.7316M135.275 94.8572C135.275 94.8572 131 98.2045 127.049 99.1508C124.334 99.8013 125.009 99.7948 122.491 99.9766C119.973 100.158 120.73 100.148 116.663 99.7587M135.275 94.8572L141.083 96.9937M116.663 99.7587C113.705 99.4751 110.932 98.4937 108.703 97.4445M116.663 99.7587C116.663 99.7587 122.951 95.4357 125 92.2752C127.78 87.6604 127.817 84 127.817 84M103.52 94.3679C103.52 94.3679 105.577 95.9729 108.703 97.4445M95.4999 85C95.4999 85 92.5818 86.1038 88.8382 85.5827C88.8382 85.5827 81.3008 84.6052 81.5 80.1049C81.5 80.1049 83.2647 77.2702 85.2397 75.318C85.2397 75.318 85.7186 74.7543 86.7835 74.2415M97.9948 87.2617L88.3118 92.2752M88.3118 92.2752C88.3118 92.2752 85.8856 91.4222 84.6551 92.8862C84.3441 93.2563 83.6966 94.4269 83.0933 96.862C82.5233 99.1623 83.0891 100.643 85.3067 100.587M88.3118 92.2752C88.3118 92.2752 89.6988 92.6082 89.6455 94.1922C89.5628 96.6514 89.0248 98.0909 88.2989 99.4574C87.815 100.368 87.5243 100.532 85.3067 100.587M85.3067 100.587C84.8926 101.917 84.9418 104.114 84.9418 104.114M102.76 91.218C100.348 93.2022 98.9484 93.5505 96.5363 95.5347M96.5363 95.5347C95.3898 95.3498 93.9287 95.3111 93.2022 96.4331C92.1908 97.9949 91.8577 99.8079 92.2676 102.26C92.471 103.476 93.5478 104.02 94.7926 104.043M96.5363 95.5347C97.6828 95.7195 98.2899 96.4198 98.4613 97.4445C98.7688 99.2832 98.9834 100.567 98.0515 102.604C97.4514 103.915 96.244 104.064 94.7926 104.043M94.7926 104.043C94.7387 105.627 94.9949 107.159 94.9949 107.159M120.78 81.7316C120.78 81.7316 120.78 84.5 118 89.1148C115.22 93.7296 108.703 97.4445 108.703 97.4445M98.5878 80.1048C98.5878 80.1048 99.0643 78.2344 98.5878 77.3641C98.1113 76.4938 97.6347 75.6235 97.6347 75.6235C97.6347 75.6235 96.0081 73.686 94.3526 73.3482C92.6971 73.0104 91.7149 72.8694 90.1712 73.1491C89.8024 73.2159 89.4953 73.2822 89.2317 73.3479M79 69.3701C79 69.3701 83.5121 70.529 84.5126 71.3043C85.5131 72.0797 86.7835 74.2415 86.7835 74.2415M86.7835 74.2415C86.9841 74.1449 87.2055 74.0501 87.4484 73.9612C87.9939 73.7617 88.392 73.5574 89.2317 73.3479M83.0933 65.5C83.0933 65.5 87.5183 67.8899 88.1488 69.3701C88.7792 70.8502 89.2317 73.3479 89.2317 73.3479" stroke="#C06A04" stroke-width="2"/>
</g>
<defs>
<filter id="filter0_f_53_1327" x="0.215576" y="-36" width="233.53" height="221.277" filterUnits="userSpaceOnUse" color-interpolation-filters="sRGB">
<feFlood flood-opacity="0" result="BackgroundImageFix"/>
<feBlend mode="normal" in="SourceGraphic" in2="BackgroundImageFix" result="shape"/>
<feGaussianBlur stdDeviation="35" result="effect1_foregroundBlur_53_1327"/>
</filter>
<clipPath id="clip0_53_1327">
<rect width="159" height="98" fill="white" transform="translate(33 34)"/>
</clipPath>
</defs>
</svg>
